<svg width="49" height="50" viewBox="0 0 49 50" fill="none" xmlns="http://www.w3.org/2000/svg">
<path d="M0.060791 0.399414H49.0001V50.0001H0.060791V0.399414Z" fill="#1E1E1E"/>
<path d="M1.38347 1.7221H47.6774V44.7093H1.38347V1.7221Z" fill="#1E1E1E"/>
<path d="M3.02096 48.6774V43.4276H2.84504L2.97466 42.1962H4.74309C5.21838 42.1962 5.55786 42.3012 5.76156 42.511C5.97142 42.7147 6.07636 43.0511 6.07636 43.5202V44.7331C6.07636 44.9183 6.06093 45.0819 6.03006 45.2238C6.18438 45.4275 6.26153 45.7362 6.26153 46.1497V47.3534C6.26153 47.8225 6.1566 48.162 5.94673 48.3718C5.74304 48.5755 5.40355 48.6774 4.92827 48.6774H3.02096ZM4.77087 44.8257C4.80173 44.8257 4.81716 44.8103 4.81716 44.7794V43.4739C4.81716 43.4431 4.80173 43.4276 4.77087 43.4276H4.28015V44.8257H4.77087ZM5.00234 46.1034C5.00234 46.0726 4.98691 46.0571 4.95604 46.0571H4.28015V47.4459H4.95604C4.98691 47.4459 5.00234 47.4305 5.00234 47.3997V46.1034Z" fill="white"/>
<path d="M6.58942 48.6774L7.3579 43.4276H7.16347L7.29309 42.1962H9.45039L10.404 48.6774H9.15411L9.01523 47.7515H7.97824L7.83936 48.6774H6.58942ZM8.15416 46.5201H8.83931L8.49673 44.2054L8.15416 46.5201Z" fill="white"/>
<path d="M13.9804 47.3534C13.9804 47.8225 13.8755 48.162 13.6656 48.3718C13.4619 48.5755 13.1224 48.6774 12.6471 48.6774H10.9065V43.4276H10.7306L10.8602 42.1962H12.6471C13.1224 42.1962 13.4619 42.2981 13.6656 42.5018C13.8755 42.7055 13.9804 43.0449 13.9804 43.5202V47.3534ZM12.6749 47.4459C12.7058 47.4459 12.7212 47.4305 12.7212 47.3997V43.4739C12.7212 43.4431 12.7058 43.4276 12.6749 43.4276H12.1657V47.4459H12.6749Z" fill="white"/>
<path d="M16.1869 48.6866V43.4369H16.011L16.1406 42.2055H17.4461V47.4459H19.2145L19.1404 48.6774H17.4461V48.6866H16.1869Z" fill="white"/>
<path d="M19.5825 48.6774L20.3509 43.4276H20.1565L20.2861 42.1962H22.4434L23.3971 48.6774H22.1472L22.0083 47.7515H20.9713L20.8324 48.6774H19.5825ZM21.1472 46.5201H21.8323L21.4898 44.2054L21.1472 46.5201Z" fill="white"/>
<path d="M23.8543 48.6774V43.4276H23.6784L23.808 42.1962H25.1135L26.169 45.7146V42.1962H27.4282V48.6774H26.169L25.1135 45.159V48.6774H23.8543Z" fill="white"/>
<path d="M29.4288 46.0571L29.5029 44.8257H31.0584V47.3904C31.0584 47.8595 30.9534 48.199 30.7436 48.4089C30.5399 48.6126 30.2004 48.7144 29.7251 48.7144H29.2251C28.7498 48.7144 28.4073 48.6126 28.1974 48.4089C27.9937 48.199 27.8919 47.8595 27.8919 47.3904V43.4832C27.8919 43.0079 27.9937 42.6684 28.1974 42.4647C28.4073 42.261 28.7498 42.1592 29.2251 42.1592H29.7251C30.2004 42.1592 30.5399 42.261 30.7436 42.4647C30.9534 42.6684 31.0584 43.0079 31.0584 43.4832V44.3998L29.7992 44.2609V43.4369C29.7992 43.406 29.7837 43.3906 29.7529 43.3906H29.1974C29.1665 43.3906 29.1511 43.406 29.1511 43.4369V47.4367C29.1511 47.4676 29.1665 47.483 29.1974 47.483H29.7529C29.7837 47.483 29.7992 47.4676 29.7992 47.4367V46.0571H29.4288Z" fill="white"/>
<path d="M34.7685 47.3904C34.7685 47.8595 34.6636 48.199 34.4537 48.4089C34.25 48.6126 33.9106 48.7144 33.4353 48.7144H32.9353C32.46 48.7144 32.1174 48.6126 31.9076 48.4089C31.7039 48.199 31.602 47.8595 31.602 47.3904V43.4276H31.4261L31.5557 42.1962H32.8612V47.4367C32.8612 47.4676 32.8767 47.483 32.9075 47.483H33.4631C33.4939 47.483 33.5093 47.4676 33.5093 47.4367V42.1962H34.7685V47.3904Z" fill="white"/>
<path d="M35.0891 48.6774L35.8576 43.4276H35.6632L35.7928 42.1962H37.9501L38.9037 48.6774H37.6538L37.5149 47.7515H36.4779L36.3391 48.6774H35.0891ZM36.6539 46.5201H37.339L36.9964 44.2054L36.6539 46.5201Z" fill="white"/>
<path d="M40.722 46.0571L40.7961 44.8257H42.3516V47.3904C42.3516 47.8595 42.2466 48.199 42.0368 48.4089C41.8331 48.6126 41.4936 48.7144 41.0183 48.7144H40.5183C40.043 48.7144 39.7005 48.6126 39.4906 48.4089C39.2869 48.199 39.1851 47.8595 39.1851 47.3904V43.4832C39.1851 43.0079 39.2869 42.6684 39.4906 42.4647C39.7005 42.261 40.043 42.1592 40.5183 42.1592H41.0183C41.4936 42.1592 41.8331 42.261 42.0368 42.4647C42.2466 42.6684 42.3516 43.0079 42.3516 43.4832V44.3998L41.0924 44.2609V43.4369C41.0924 43.406 41.0769 43.3906 41.0461 43.3906H40.4905C40.4597 43.3906 40.4442 43.406 40.4442 43.4369V47.4367C40.4442 47.4676 40.4597 47.483 40.4905 47.483H41.0461C41.0769 47.483 41.0924 47.4676 41.0924 47.4367V46.0571H40.722Z" fill="white"/>
<path d="M42.8963 48.6774V43.4276H42.7204L42.85 42.1962H45.498L45.424 43.4276H44.1555V44.8165H45.2943L45.2203 46.0479H44.1555V47.4459H45.498L45.424 48.6774H42.8963Z" fill="white"/>
<path d="M44.3707 19.5305C44.3707 26.0786 35.4879 31.3869 24.5304 31.3869C13.573 31.3869 4.69018 26.0786 4.69018 19.5305C4.69018 12.9824 13.573 7.67417 24.5304 7.67417C35.4879 7.67417 44.3707 12.9824 44.3707 19.5305Z" fill="url(#paint0_linear_243_5427)"/>
<path d="M11.0634 38.0959L11.5673 28.5064L14.941 29.9125L18.5784 30.8211L11.0634 38.0959Z" fill="url(#paint1_linear_243_5427)"/>
<path d="M17.3879 17.2636H19.1868V19.3799H19.3984C19.4425 19.3799 19.4646 19.3579 19.4646 19.3138V18.8244L19.4513 16.9197C19.4513 16.8756 19.4293 16.8536 19.3852 16.8536H14.5971C14.553 16.8536 14.531 16.8756 14.531 16.9197V21.8533C14.531 21.8974 14.553 21.9195 14.5971 21.9195H19.3984C19.4425 21.9195 19.4646 21.8974 19.4646 21.8533V21.3375H21.0782V22.3163C21.0782 22.6866 20.9636 22.9864 20.7343 23.2157C20.5051 23.4362 20.2053 23.5464 19.8349 23.5464H14.1341C13.7638 23.5464 13.464 23.4494 13.2347 23.2554C13.0055 23.0614 12.8908 22.8057 12.8908 22.4882V16.4568C12.8908 16.0864 13.0055 15.791 13.2347 15.5706C13.464 15.3413 13.7638 15.2267 14.1341 15.2267H19.8481C20.2185 15.2267 20.5183 15.3413 20.7476 15.5706C20.9768 15.791 21.0915 16.0864 21.0915 16.4568L21.0782 18.5334H21.0915V19.2477C21.0915 19.8473 20.9724 20.3146 20.7343 20.6497C20.5051 20.976 20.1259 21.1391 19.5968 21.1391H19.5704L19.1868 20.5703V21.6285H17.3879V20.9275L16.9118 21.6285H16.7002C16.0212 21.6285 15.5318 21.483 15.232 21.192C14.941 20.8922 14.7955 20.4072 14.7955 19.737V19.1551C14.7955 18.4761 14.941 17.9911 15.232 17.7001C15.523 17.4091 16.0168 17.2636 16.7134 17.2636C16.9691 17.2636 17.194 17.3077 17.3879 17.3959V17.2636ZM16.6605 19.0228C16.6164 19.0228 16.5943 19.0448 16.5943 19.0889V19.8032C16.5943 19.8473 16.6164 19.8693 16.6605 19.8693H17.3879V19.0228H16.6605Z" fill="#1E1E1E"/>
<path d="M22.5088 23.5464L22.6278 21.7211H21.6226V20.0942H22.7337L22.7866 19.2344H21.8871V17.6075H22.8924L23.0246 15.6103H24.5193L24.387 17.6075H25.0484L25.1806 15.6103H26.6753L26.543 17.6075H27.4424V19.2344H26.4372L26.371 20.0942H27.1779V21.7211H26.2652L26.1462 23.5464H24.6648L24.7838 21.7211H24.1092L23.9902 23.5464H22.5088ZM24.2151 20.0942H24.8896L24.9425 19.2344H24.2812L24.2151 20.0942Z" fill="#1E1E1E"/>
<path d="M28.8639 23.5464L28.9829 21.7211H27.9777V20.0942H29.0887L29.1416 19.2344H28.2422V17.6075H29.2475L29.3797 15.6103H30.8744L30.7421 17.6075H31.4034L31.5357 15.6103H33.0303L32.8981 17.6075H33.7975V19.2344H32.7923L32.7261 20.0942H33.533V21.7211H32.6203L32.5013 23.5464H31.0199L31.1389 21.7211H30.4643L30.3453 23.5464H28.8639ZM30.5701 20.0942H31.2447L31.2976 19.2344H30.6363L30.5701 20.0942Z" fill="#1E1E1E"/>
<path d="M34.3328 21.2846V15.6103H35.8274V21.2846H34.3328ZM34.3328 23.5464V21.7475H35.8274V23.5464H34.3328Z" fill="#1E1E1E"/>
<defs>
<linearGradient id="paint0_linear_243_5427" x1="24.5304" y1="0.399414" x2="24.5304" y2="50.0001" gradientUnits="userSpaceOnUse">
<stop stop-color="#D9D9D9"/>
<stop offset="1" stop-color="#D9D9D9" stop-opacity="0.56"/>
</linearGradient>
<linearGradient id="paint1_linear_243_5427" x1="24.5304" y1="0.399414" x2="24.5304" y2="50.0001" gradientUnits="userSpaceOnUse">
<stop stop-color="#D9D9D9"/>
<stop offset="1" stop-color="#D9D9D9" stop-opacity="0.56"/>
</linearGradient>
</defs>
</svg>
