<svg width="50" height="50" viewBox="0 0 50 50" fill="none" xmlns="http://www.w3.org/2000/svg">
<path d="M0.15332 0.399414H49.754V50.0001H0.15332V0.399414Z" fill="#1E1E1E"/>
<path d="M2.13735 1.7221H48.4313V44.7093H2.13735V1.7221Z" fill="#1E1E1E"/>
<path d="M33.1715 9.34406C31.51 7.78991 29.3501 7.01283 27.3563 7.01283C25.3625 7.01283 23.0364 7.78991 21.541 9.34406L11.9044 18.0473C8.58136 21.1556 8.58136 25.9735 11.9044 29.0818C15.2274 32.1901 20.378 32.1901 23.701 29.0818L33.1715 20.2231C36.3284 17.2702 36.3284 12.297 33.1715 9.34406ZM30.8454 18.0473L26.1932 22.399L20.2118 16.9594L12.9013 23.7977C12.9013 22.5544 13.2336 21.1556 14.3966 20.2231L23.8671 11.3645C24.6979 10.5874 26.0271 10.1211 27.1901 10.1211C28.3532 10.1211 29.6824 10.5874 30.6793 11.3645C32.6731 13.3849 32.6731 16.1823 30.8454 18.0473ZM38.8206 14.939C38.8206 16.1823 38.4883 17.2702 38.156 18.5136C39.8175 20.3785 39.8175 23.176 37.9899 24.8856L33.3377 29.2372L30.8454 26.906L26.1932 31.2576C24.0333 33.278 21.0426 34.3659 18.2181 34.3659C18.5504 34.8322 18.8827 35.2984 19.3811 35.7647C22.7041 38.873 27.8547 38.873 31.1777 35.7647L40.6483 26.906C43.9713 23.7977 43.9713 18.9798 40.6483 15.8715C39.8175 15.5607 39.3191 15.2498 38.8206 14.939Z" fill="url(#paint0_linear_243_5428)"/>
<path d="M19.4605 47.3534C19.4605 47.8225 19.3556 48.162 19.1457 48.3718C18.942 48.5755 18.6026 48.6774 18.1273 48.6774H16.3866V43.4276H16.2107L16.3403 42.1962H18.1273C18.6026 42.1962 18.942 42.2981 19.1457 42.5018C19.3556 42.7055 19.4605 43.0449 19.4605 43.5202V47.3534ZM18.155 47.4459C18.1859 47.4459 18.2013 47.4305 18.2013 47.3997V43.4739C18.2013 43.4431 18.1859 43.4276 18.155 43.4276H17.6458V47.4459H18.155Z" fill="white"/>
<path d="M19.957 48.6774V43.4276H19.7811L19.9107 42.1962H21.6051C22.0804 42.1962 22.4199 42.3012 22.6236 42.511C22.8334 42.7147 22.9384 43.0511 22.9384 43.5202V45.6312C22.9384 46.1065 22.8365 46.446 22.6328 46.6497L23.2069 48.6774H21.9477L21.4662 46.9552H21.2162V48.6774H19.957ZM21.6329 43.4276H21.2162V45.7238H21.6329C21.6637 45.7238 21.6792 45.7084 21.6792 45.6775V43.4739C21.6792 43.4431 21.6637 43.4276 21.6329 43.4276Z" fill="white"/>
<path d="M26.6498 47.3904C26.6498 47.8595 26.5449 48.199 26.335 48.4089C26.1313 48.6126 25.7919 48.7144 25.3166 48.7144H24.8166C24.3413 48.7144 23.9987 48.6126 23.7889 48.4089C23.5852 48.199 23.4833 47.8595 23.4833 47.3904V43.4276H23.3074L23.437 42.1962H24.7425V47.4367C24.7425 47.4676 24.758 47.483 24.7888 47.483H25.3443C25.3752 47.483 25.3906 47.4676 25.3906 47.4367V42.1962H26.6498V47.3904Z" fill="white"/>
<path d="M28.5978 46.0571L28.6719 44.8257H30.2273V47.3904C30.2273 47.8595 30.1224 48.199 29.9125 48.4089C29.7089 48.6126 29.3694 48.7144 28.8941 48.7144H28.3941C27.9188 48.7144 27.5762 48.6126 27.3664 48.4089C27.1627 48.199 27.0608 47.8595 27.0608 47.3904V43.4832C27.0608 43.0079 27.1627 42.6684 27.3664 42.4647C27.5762 42.261 27.9188 42.1592 28.3941 42.1592H28.8941C29.3694 42.1592 29.7089 42.261 29.9125 42.4647C30.1224 42.6684 30.2273 43.0079 30.2273 43.4832V44.3998L28.9682 44.2609V43.4369C28.9682 43.406 28.9527 43.3906 28.9219 43.3906H28.3663C28.3355 43.3906 28.32 43.406 28.32 43.4369V47.4367C28.32 47.4676 28.3355 47.483 28.3663 47.483H28.9219C28.9527 47.483 28.9682 47.4676 28.9682 47.4367V46.0571H28.5978Z" fill="white"/>
<path d="M31.8995 46.6404V47.4737C31.8995 47.5046 31.9149 47.52 31.9458 47.52H32.2143C32.2452 47.52 32.2606 47.5046 32.2606 47.4737L32.2698 46.2423L31.2236 45.7886C30.989 45.6837 30.8316 45.5757 30.7514 45.4646C30.6773 45.3535 30.6403 45.1837 30.6403 44.9553V43.4462C30.6403 42.9709 30.7421 42.6314 30.9458 42.4277C31.1495 42.224 31.4798 42.1222 31.9365 42.1222H32.3254C32.7575 42.1407 33.0661 42.2549 33.2513 42.4647C33.4365 42.6684 33.529 42.9956 33.529 43.4462V44.6035L32.2698 44.4646V43.3999C32.2698 43.369 32.2544 43.3536 32.2236 43.3536H31.9458C31.9149 43.3536 31.8995 43.369 31.8995 43.3999V44.7609L32.9457 45.2146C33.1803 45.3133 33.3346 45.4214 33.4087 45.5386C33.4889 45.6497 33.529 45.8195 33.529 46.0479V47.4274C33.529 47.878 33.4365 48.2083 33.2513 48.4181C33.0661 48.6218 32.7575 48.7329 32.3254 48.7514H31.955C31.4859 48.7514 31.1495 48.6496 30.9458 48.4459C30.7421 48.236 30.6403 47.8965 30.6403 47.4274V46.6404H31.8995Z" fill="white"/>
<defs>
<linearGradient id="paint0_linear_243_5428" x1="24.9536" y1="0.399414" x2="24.9536" y2="50.0001" gradientUnits="userSpaceOnUse">
<stop stop-color="#D9D9D9"/>
<stop offset="1" stop-color="#D9D9D9" stop-opacity="0.56"/>
</linearGradient>
</defs>
</svg>
