<svg width="50" height="50" viewBox="0 0 50 50" fill="none" xmlns="http://www.w3.org/2000/svg">
<path d="M0 0.399414H49.6006V50.0001H0V0.399414Z" fill="#1E1E1E"/>
<path d="M1.98403 1.7221H48.278V44.7093H1.98403V1.7221Z" fill="#1E1E1E"/>
<path d="M2.64537 2.38344V3.5625L15.6527 14.2716L10.902 2.38344H2.64537ZM14.0327 2.38344L20.3485 12.4337L20.0799 2.38352L14.0327 2.38344ZM23.3173 2.38344L25.4225 11.9616L28.7149 2.38344H23.3173ZM31.9523 2.38344L30.4421 12.9033L38.8084 2.38344H31.9523ZM41.7743 2.38344L34.9212 15.1702L46.9553 7.14733V2.38344H41.7743ZM2.64537 6.72321V13.5167L11.8203 17.291L2.64537 6.72321ZM46.9553 10.4519L38.3203 18.4722L46.9552 15.8292L46.9553 10.4519ZM18.1046 15.2562C17.0955 15.2631 15.7793 16.0934 14.7662 17.4676C14.1673 18.2798 13.7766 19.1452 13.611 19.924C9.07898 21.756 3.08434 25.0866 3.08434 25.0866L16.8021 35.2655L18.1883 40.7413H31.5219L32.5674 35.518L32.5761 35.5255L46.6461 25.0868C46.6461 25.0868 40.5437 21.6946 35.9984 19.8735C35.8267 19.1081 35.4405 18.2623 34.8548 17.4678C33.8416 16.0936 32.5226 15.2633 31.5134 15.2563C31.177 15.2539 30.8752 15.343 30.6299 15.534C30.4063 15.708 30.2494 15.9517 30.1562 16.2459C30.272 16.3732 30.3857 16.5025 30.4941 16.6372C31.5707 17.9758 32.3033 19.6768 32.5706 21.5651C33.366 22.1936 34.1937 22.5154 34.8548 22.436L39.9001 25.3392L30.2342 30.0095C29.8581 30.4346 29.442 30.8191 28.9923 31.1531C28.477 30.8021 27.9727 30.5108 27.4732 30.2796C28.0579 29.9169 28.6014 29.433 29.0819 28.8356C30.2186 27.4222 30.956 25.4092 30.956 23.1705C30.956 20.9317 30.2186 18.9187 29.0819 17.5054C27.9452 16.092 26.4665 15.2989 24.8826 15.2989C23.2988 15.2989 21.8203 16.092 20.6836 17.5053C19.5469 18.9185 18.8095 20.9316 18.8095 23.1703C18.8095 25.409 19.5469 27.422 20.6836 28.8353C21.1032 29.3569 21.569 29.7939 22.0698 30.1379C21.5606 30.3494 21.0468 30.6245 20.5276 30.9635C20.1761 30.679 19.8516 30.3699 19.5573 30.0394L9.83067 25.3387L14.8615 22.4432C15.5537 22.4846 16.4104 22.1127 17.2181 21.4257C17.5009 19.5933 18.2213 17.9423 19.2715 16.6368C19.3444 16.5462 19.4195 16.4569 19.4967 16.3691C19.4103 16.0196 19.2423 15.7312 18.9884 15.5335C18.743 15.3425 18.441 15.2539 18.1046 15.2562ZM23.7505 19.9795C23.6868 20.3081 23.655 20.6409 23.6553 20.9742C23.6553 21.1554 23.6615 21.3304 23.6784 21.5017C22.6369 21.5778 21.6353 21.7751 20.7153 22.095L20.0771 20.6941C21.2358 20.291 22.4755 20.0548 23.7505 19.9795ZM26.3584 20.0425C27.4274 20.1537 28.4978 20.3685 29.5439 20.6813L28.9864 22.1077C28.1485 21.857 27.2849 21.6778 26.4075 21.5725C26.4294 21.3737 26.44 21.174 26.4394 20.9742C26.4394 20.6475 26.4113 20.3334 26.3584 20.0425ZM24.8336 23.3801C26.7065 23.3801 28.227 24.7053 28.227 26.3413C28.227 27.9776 26.7065 29.3051 24.8336 29.3051C22.9607 29.3051 21.4431 27.9775 21.4431 26.3414C21.4431 24.7054 22.9607 23.3801 24.8336 23.3801Z" fill="url(#paint0_linear_243_5425)"/>
<path d="M18.2173 48.6774V43.4276H18.0414L18.171 42.1962H20.819L20.745 43.4276H19.4765V44.8165H20.6153L20.5413 46.0479H19.4765V48.6774H18.2173Z" fill="white"/>
<path d="M21.3187 48.6774V43.4276H21.1427L21.2724 42.1962H23.9204L23.8463 43.4276H22.5779V44.8165H23.7167L23.6426 46.0479H22.5779V47.4459H23.9204L23.8463 48.6774H21.3187Z" fill="white"/>
<path d="M24.2441 48.6774L25.0125 43.4276H24.8181L24.9477 42.1962H27.105L28.0587 48.6774H26.8088L26.6699 47.7515H25.6329L25.494 48.6774H24.2441ZM25.8088 46.5201H26.494L26.1514 44.2054L25.8088 46.5201Z" fill="white"/>
<path d="M28.56 48.6774V43.4276H28.3841L28.5137 42.1962H30.2081C30.6834 42.1962 31.0229 42.3012 31.2266 42.511C31.4364 42.7147 31.5414 43.0511 31.5414 43.5202V45.6312C31.5414 46.1065 31.4395 46.446 31.2358 46.6497L31.8099 48.6774H30.5507L30.0692 46.9552H29.8192V48.6774H28.56ZM30.2359 43.4276H29.8192V45.7238H30.2359C30.2667 45.7238 30.2822 45.7084 30.2822 45.6775V43.4739C30.2822 43.4431 30.2667 43.4276 30.2359 43.4276Z" fill="white"/>
<defs>
<linearGradient id="paint0_linear_243_5425" x1="24.8003" y1="0.399414" x2="24.8003" y2="50.0001" gradientUnits="userSpaceOnUse">
<stop stop-color="#D9D9D9"/>
<stop offset="1" stop-color="#D9D9D9" stop-opacity="0.56"/>
</linearGradient>
</defs>
</svg>
