<svg width="50" height="50" viewBox="0 0 50 50" fill="none" xmlns="http://www.w3.org/2000/svg">
<path d="M0.907227 0.399414H49.8465V50.0001H0.907227V0.399414Z" fill="#1E1E1E"/>
<path d="M2.22991 1.7221H48.5238V44.7093H2.22991V1.7221Z" fill="#1E1E1E"/>
<path d="M16.9868 13.9569C18.2584 13.9569 19.4779 13.4866 20.3771 12.6494C21.2762 11.8123 21.7814 10.6768 21.7814 9.49286C21.7814 8.30892 21.2762 7.17347 20.3771 6.3363C19.4779 5.49913 18.2584 5.02881 16.9868 5.02881C15.7152 5.02881 14.4956 5.49913 13.5965 6.3363C12.6973 7.17347 12.1922 8.30892 12.1922 9.49286C12.1922 10.6768 12.6973 11.8123 13.5965 12.6494C14.4956 13.4866 15.7152 13.9569 16.9868 13.9569ZM16.3874 38.5092V29.5811H17.5861V38.5092C17.5861 39.7438 18.6574 40.7413 19.9834 40.7413C21.3094 40.7413 22.3807 39.7438 22.3807 38.5092V25.989L23.3471 27.4188C24.0513 28.4651 25.5347 28.772 26.6509 28.1164C27.7672 27.4607 28.1043 26.0796 27.4001 25.0403L23.5269 19.3138C22.2084 17.3677 19.9085 16.182 17.4438 16.182H16.5223C14.0501 16.182 11.7502 17.3608 10.4391 19.3138L6.56598 25.0473C5.86177 26.0936 6.19889 27.4677 7.31514 28.1233C8.43138 28.779 9.91471 28.4651 10.6189 27.4258L11.5928 25.989V38.5092C11.5928 39.7438 12.6641 40.7413 13.9901 40.7413C15.3161 40.7413 16.3874 39.7438 16.3874 38.5092ZM37.3639 5.02881H34.9666C34.3073 5.02881 33.7679 5.53101 33.7679 6.14482C33.7679 6.75863 34.3073 7.26084 34.9666 7.26084V14.2569C34.2474 14.6405 33.7679 15.3659 33.7679 16.189V18.421C32.4419 18.421 31.3706 19.4184 31.3706 20.653V30.6971C31.3706 31.9317 32.4419 32.9292 33.7679 32.9292H34.9666V39.6253C34.9666 40.2391 35.506 40.7413 36.1652 40.7413H40.6227C41.4018 40.7413 41.9712 40.0577 41.7839 39.3532L40.0608 32.9292H43.3571C44.0164 32.9292 44.5558 32.427 44.5558 31.8132V30.6971C44.5558 30.0833 44.0164 29.5811 43.3571 29.5811H39.7612V27.7188L43.7392 26.4842C44.2262 26.3307 44.5558 25.9053 44.5558 25.424V19.537C44.5558 18.9232 44.0164 18.421 43.3571 18.421H42.1585C41.4992 18.421 40.9598 18.9232 40.9598 19.537V23.443L39.7612 23.8127V16.189C39.7612 15.3659 39.2817 14.6405 38.5625 14.2569V6.14482C38.5625 5.53101 38.0231 5.02881 37.3639 5.02881Z" fill="url(#paint0_linear_243_5426)"/>
<path d="M13.2889 48.6774L12.3352 42.1962H13.5851L14.2425 46.8071L14.8999 42.1962H16.1498L15.1962 48.6774H13.2889Z" fill="white"/>
<path d="M16.6071 48.6774V43.4276H16.4311L16.5608 42.1962H17.8663V48.6774H16.6071Z" fill="white"/>
<path d="M21.3586 47.3904C21.3586 47.8595 21.2537 48.199 21.0438 48.4089C20.8401 48.6126 20.5006 48.7144 20.0254 48.7144H19.618C19.1427 48.7144 18.8001 48.6126 18.5902 48.4089C18.3866 48.199 18.2847 47.8595 18.2847 47.3904V43.4832C18.2847 43.0079 18.3866 42.6684 18.5902 42.4647C18.8001 42.261 19.1427 42.1592 19.618 42.1592H20.0254C20.5006 42.1592 20.8401 42.261 21.0438 42.4647C21.2537 42.6684 21.3586 43.0079 21.3586 43.4832V47.3904ZM19.5902 43.3906C19.5593 43.3906 19.5439 43.406 19.5439 43.4369V47.4367C19.5439 47.4676 19.5593 47.483 19.5902 47.483H20.0531C20.084 47.483 20.0994 47.4676 20.0994 47.4367V43.4369C20.0994 43.406 20.084 43.3906 20.0531 43.3906H19.5902Z" fill="white"/>
<path d="M21.9055 48.6866V43.4369H21.7296L21.8592 42.2055H23.1647V47.4459H24.9332L24.8591 48.6774H23.1647V48.6866H21.9055Z" fill="white"/>
<path d="M25.3414 48.6774V43.4276H25.1655L25.2951 42.1962H27.9431L27.8691 43.4276H26.6006V44.8165H27.7394L27.6654 46.0479H26.6006V47.4459H27.9431L27.8691 48.6774H25.3414Z" fill="white"/>
<path d="M28.488 48.6774V43.4276H28.312L28.4417 42.1962H29.7472L30.8027 45.7146V42.1962H32.0619V48.6774H30.8027L29.7472 45.159V48.6774H28.488Z" fill="white"/>
<path d="M35.509 45.9923V47.4274C35.509 47.8965 35.4041 48.236 35.1942 48.4459C34.9905 48.6496 34.651 48.7514 34.1757 48.7514H33.7684C33.2931 48.7514 32.9505 48.6496 32.7406 48.4459C32.5369 48.236 32.4351 47.8965 32.4351 47.4274V43.4462C32.4351 42.9709 32.5369 42.6314 32.7406 42.4277C32.9505 42.224 33.2931 42.1222 33.7684 42.1222H34.1757C34.651 42.1222 34.9905 42.224 35.1942 42.4277C35.4041 42.6314 35.509 42.9709 35.509 43.4462V44.9739L34.2498 44.835V43.3999C34.2498 43.369 34.2344 43.3536 34.2035 43.3536H33.7406C33.7097 43.3536 33.6943 43.369 33.6943 43.3999V47.4737C33.6943 47.5046 33.7097 47.52 33.7406 47.52H34.2035C34.2344 47.52 34.2498 47.5046 34.2498 47.4737V45.9923H35.509Z" fill="white"/>
<path d="M36.0559 48.6774V43.4276H35.88L36.0096 42.1962H38.6577L38.5836 43.4276H37.3151V44.8165H38.454L38.3799 46.0479H37.3151V47.4459H38.6577L38.5836 48.6774H36.0559Z" fill="white"/>
<defs>
<linearGradient id="paint0_linear_243_5426" x1="25.3769" y1="0.399414" x2="25.3769" y2="50.0001" gradientUnits="userSpaceOnUse">
<stop stop-color="#D9D9D9"/>
<stop offset="1" stop-color="#D9D9D9" stop-opacity="0.56"/>
</linearGradient>
</defs>
</svg>
